<?xml version="1.0" encoding="UTF-8"?>
<svg id="Layer_2" data-name="Layer 2" xmlns="http://www.w3.org/2000/svg" viewBox="0 0 241.24 168.39">
  <defs>
    <style>
      .cls-1 {
        fill: #333;
      }

      .cls-2 {
        fill: #446035;
      }
    </style>
  </defs>
  <g id="Layer_1-2" data-name="Layer 1">
    <g>
      <path class="cls-2" d="M150.22,57l.73,2.29,1.04,3.3-14.59-11.36,1.15,3.86,1.98,3.96-5.21-3.44,5.21,6.57-21.37-16.26,2.24,6.67,4.33,7.14-3.79,1.21-.47.15h0l-.77.25-.18.97h0,0s-.52,2.78-.52,2.78l-16.78-11.89-1.47.96,1.32,2.33-.23,2.99,3.1,5.73-13.13-8.56-.22.18-5.44,5.08,5.29,5.2-5.7-2.68h0l-1.01-.47-1.26-.59-.99.8v13.6c0,1.58.84,3.05,2.2,3.84l32.18,18.72c.68.4,1.45.6,2.21.6s1.53-.2,2.21-.6l32.18-18.72c1.36-.79,2.2-2.26,2.2-3.84v-16.67l-2.25-1.42-4.18-2.64Z"/>
      <path class="cls-1" d="M97.94,89.08c.03.99.23,2.08.27,3.09.03.78-.05,1.65.09,2.42.07.39.31.84.66.99,0,0-1.55,3.15-3.17,4.35-1.34.99-1.93,1.01-2.21,1.09-.27-.07-.77-.17-1.3-.14,0,0,.74.17,1.08.32-.05.19.12.44.57.4.06.29.03.86.03.86.19-.3.23-.69.23-.91.81-.24,3.48-1.6,4.74-4.32,0,0,.85-1.31,1.17-1.59.31-.29.75-.4.75-1.2-.01-.93-.09-1.86-.15-2.79-.05-.8.05-1.12-.59-1.56-.47-.32-1.62-1.36-2.16-1.3,0,.1,0,.2,0,.3Z"/>
      <path class="cls-1" d="M128.34,96.57c-.21.12-.43.23-.65.34-.79.4-1.4.56-1.87,1.31-1.34,2.15-3.63,3.47-5.42,4.23,0-.09-1.88-.94-2.07-1.06-.77-.48-1.5-1.03-2.14-1.67-1.39-1.41-3.06-2.55-4.75-3.59-.52-.32-1.3-.98-1.21-.11.08.73.87,1.72,1.25,2.33.87,1.38,1.94,2.63,3.18,3.69-.59.54-1.62,1.38-2.35,1.57-1.06.27-1.8.32-2.05.4-.25.09.72.78,1.83.42,1.11-.37,1.42-.8,1.81-1.1.26-.21.97-.5,1.42-.74,1.21.92,2.21,1.41,2.63,1.61.74.35,1.78.18,2.43.01.65.17,1.69.34,2.43-.01.42-.2,1.42-.69,2.63-1.61.45.24,1.16.53,1.42.74.4.31.7.74,1.81,1.1,1.11.37,2.08-.33,1.83-.42-.25-.09-.99-.13-2.05-.4-.73-.19-1.75-1.03-2.35-1.57.17.15,2.37-2.53,2.54-2.76.91-1.25,1.5-2.49,1.96-3.92-.1-.08-.25,0-.36.06-.64.4-1.28.78-1.95,1.13Z"/>
      <path class="cls-1" d="M132.46,14.62c-6.11,6.02-9.89,15.08-9.89,15.08h0c-.44-.08-.93-.13-1.44-.11-.51-.02-1,.03-1.44.11h0s-3.78-9.06-9.89-15.08C103.7,8.59,92.92-1,77.39.08c0,0,10.28-.32,20.27,5.57,9.99,5.88,14.73,12.47,16.89,15.97,1.87,3.04,3.25,6.34,3.63,8.49-.1.04-.15.06-.15.06-2.87,1.4-1.08,2.98-1.08,2.98-2.12.81-3.65,3.41-3.65,3.41-.42.97-.65,1.91-.75,2.76h0s-.35-.11-.52-.11c0,0-3.57-3.41-6.37-4.61,0,0-.81-6.41-2.01-7.58,0,0-2.34-2.56-2.6-2.92-.05-.06-.1-.11-.16-.14-.01-.31-.06-.91-.29-1.16,0,0,.07.7.07,1.11-.2,0-.37.1-.37.1.04.25-.12.35-.06.5-.21.12-.55.3-.76.33,0,0,.62-.02.97-.13.04.03.09.06.14.09.63.37,2.55,2.14,2.66,2.35.11.21,0,4.69,1.78,7.37,0,0,2.68,3.73,6.07,5.32,0,0,.66,2.03,1.51,3.2-.24.5-.83,1.72-1.52,3.37-1.87-.55-7.31-2.09-8.54-1.95-1.49.18-2.87,3.03-3.2,3.59-.1.17-.77,2.17-1.68,3.8.29-.31.59-.61.92-.86.2-.2.4-.4.6-.6.61-.58,1.62-.95,2.02-1.72.13-.25.32-.36.53-.37.06-.26.11-.49.14-.65,0,0,2.37,1.15,4.69,2.03.53-.43,1.12-.8,1.72-1.16.14-.09.28-.12.41-.11.32-.23.64-.48.94-.73.61-.51,1.18-1.04,1.83-1.5.63-.44,1.28-.8,1.77-1.41.22-.27.5-.3.74-.19.49-.38,1.02-.71,1.53-1.07-.37-.38-.51-.66-.51-.66.21.19.45.37.7.53.17-.11.34-.13.49-.09.56-.51,1.12-1.03,1.73-1.45.86-.59,1.91-.46,2.85-.14.11.04.2.09.27.15.44.09.87.29,1.27.63.17,0,.34.07.49.24.49.57,1.04,1.07,1.62,1.53,1.06-.3,2.05-.74,2.78-1.41,0,0-.49,1.04-2.25,1.82.31.23.62.45.94.67.69.48,1.38,1.01,2.08,1.5.12.02.24.07.35.16.17.13.33.26.5.4.14.08.28.17.41.24.17.09.27.22.32.36.92.75,1.83,1.51,2.78,2.22,1.09-1,2.19-2.01,3.43-2.81.52-.33,1.06-.8,1.68-.92.41-.08.75.02,1.05.23.44.16.85.51,1.18.81.03.03.06.05.09.08.12.01.24.06.36.15.14-.07.22-.1.22-.1.02.1.05.23.08.37.91.81,1.92,1.51,2.82,2.33.36.33.71.66,1.05,1-.77-1.51-1.33-3.15-1.41-3.3-.32-.56-1.71-3.41-3.2-3.59-1.23-.14-6.67,1.4-8.54,1.95-.68-1.65-1.27-2.88-1.52-3.37.85-1.18,1.51-3.2,1.51-3.2,3.4-1.59,6.07-5.32,6.07-5.32,1.78-2.68,1.67-7.16,1.78-7.37.11-.21,2.03-1.98,2.66-2.35.06-.03.1-.06.14-.09.34.11.97.13.97.13-.22-.03-.55-.2-.76-.33.06-.14-.09-.25-.06-.5,0,0-.17-.1-.37-.1,0-.41.07-1.11.07-1.11-.23.25-.28.85-.29,1.16-.06.03-.11.07-.16.14-.26.36-2.6,2.92-2.6,2.92-1.2,1.17-2.01,7.58-2.01,7.58-2.8,1.21-6.37,4.61-6.37,4.61-.17,0-.52.11-.52.11h0c-.1-.84-.33-1.78-.75-2.76,0,0-1.53-2.61-3.65-3.41,0,0,1.8-1.58-1.08-2.98,0,0-.05-.02-.15-.06.38-2.15,1.76-5.45,3.63-8.49,2.16-3.5,6.9-10.09,16.89-15.97C154.59-.23,164.87.08,164.87.08c-15.52-1.09-26.3,8.51-32.41,14.53Z"/>
      <path class="cls-1" d="M148.55,100.36c-.53-.03-1.04.07-1.3.14-.28-.08-.87-.09-2.21-1.09-1.62-1.2-3.17-4.35-3.17-4.35.34-.15.58-.6.66-.99.12-.67.05-1.42.07-2.1.03-1.12.28-2.47.08-3.56,0-.05-1.58.88-1.71.96-.65.43-.78.5-.83,1.29-.07,1.08-.14,2.16-.16,3.24,0,.79.43.91.75,1.2.31.29,1.17,1.59,1.17,1.59,1.26,2.73,3.93,4.09,4.74,4.32,0,.22.04.61.23.91,0,0-.02-.57.03-.86.45.04.62-.21.57-.4.35-.15,1.08-.32,1.08-.32Z"/>
      <path class="cls-1" d="M112.64,17.03l6.33-3.68c.33-.19.71-.29,1.08-.29s.75.1,1.08.29l7.9,4.59c.4-.66.96-1.27,1.5-1.73l-8.27-4.81c-1.37-.79-3.06-.79-4.43,0l-6.65,3.87c.52.56,1.01,1.14,1.46,1.76Z"/>
      <path class="cls-1" d="M154.44,30.12l-22.57-13.13c-.05.06-.1.12-.18.17-.47.35-1.01.92-1.37,1.53l22.99,13.37c.67.39,1.09,1.11,1.09,1.9v20.21l-3.84-2.6-3.68,1.74-8.89-7.09-5.74,3.97-12.51-9.69-13.79,9.54-2.64-2.43-7.52,5.64-2.57-2.29-7.51,5.76v-22.75c0-.78.42-1.51,1.09-1.9l24.57-14.29c-.45-.62-.96-1.19-1.49-1.74l-24.21,14.08c-1.36.79-2.2,2.26-2.2,3.84v27.31l2.25-1.73,7.4-5.68,1.55,1.39c.58.51,1.45.55,2.07.09l6.43-4.82,1.63,1.49c.57.52,1.4.58,2.03.14l12.84-8.88,11.56,8.96c.57.44,1.34.46,1.93.05l4.74-3.28,7.89,6.29c.48.38,1.16.46,1.72.2l2.87-1.36,4.04,2.74,2.25,1.52v-24.46c0-1.58-.84-3.05-2.2-3.84Z"/>
    </g>
    <g>
      <path class="cls-2" d="M20.08,145.37v-13.84c0-1.48-.14-2.71-.43-3.68-.3-.97-.71-1.75-1.28-2.33-.57-.56-1.3-.95-2.15-1.2-.85-.22-1.83-.33-2.95-.33h-5.42v15.77c0,1.8-.34,3.15-1.05,4.06-.53.67-1.23,1.15-2.13,1.48s-2.04.4-3.43.22l-1.23-.13.85-2.33.59.07c.71.09,1.28.04,1.74-.11.46-.15.82-.38,1.1-.71.25-.31.43-.69.55-1.15.11-.46.16-.95.16-1.46v-15.7H1.74l1.01-2.35h11.09c.62,0,1.24.02,1.9.09.64.07,1.28.2,1.9.35.62.16,1.19.38,1.72.64s1.01.6,1.39,1.02c.46.49.85,1.02,1.14,1.6s.55,1.2.71,1.84c.16.64.3,1.35.37,2.08.07.75.09,1.55.09,2.4v13.71h-2.97Z"/>
      <path class="cls-2" d="M31.72,145.39v-18.32c0-.58-.02-1.07-.05-1.46-.05-.38-.14-.71-.25-.95-.11-.24-.3-.4-.55-.51s-.59-.15-1.01-.15h-2.1l1.12-2.35h2.36c.43,0,.85.04,1.28.13.41.09.78.26,1.12.56.32.29.57.71.78,1.24.21.55.3,1.26.3,2.17v19.65h-3Z"/>
      <path class="cls-2" d="M54.29,145.39v-13.84c0-1.44-.11-2.66-.37-3.64-.25-.96-.64-1.73-1.17-2.33-.53-.58-1.24-1-2.1-1.24s-1.92-.35-3.18-.35h-7.14l1.05-2.35h7.11c.5,0,1.05.02,1.62.07.57.07,1.17.16,1.74.31.57.15,1.14.35,1.69.62.53.29,1.01.64,1.44,1.11.5.55.91,1.13,1.21,1.73.3.62.5,1.26.66,1.91.16.64.25,1.31.3,2,.05.69.07,1.37.07,2.06v13.95h-2.95Z"/>
      <path class="cls-2" d="M81.34,145.39h-18.53l.96-2.4h13.02v-12.31c0-1.35-.11-2.46-.37-3.33s-.62-1.55-1.14-2.06c-.53-.49-1.17-.82-1.97-1.02-.8-.2-1.76-.29-2.86-.29h-7.25l.94-2.35h7.46c1.39,0,2.65.18,3.77.53,1.1.36,2.04,1.02,2.84,2,1.05,1.31,1.58,3.44,1.56,6.39l-.07,9.25v1.68c-.02.42,0,.75.02.98.02.22.09.36.18.42.07.07.21.11.37.11h2.01l-.94,2.4Z"/>
      <path class="cls-2" d="M104.3,123.99h-2.36v21.4h-2.95v-21.4h-12.92l1.01-2.35h18.21l-.98,2.35Z"/>
      <path class="cls-2" d="M126.28,145.39v-13.62c0-1.4-.11-2.6-.37-3.59s-.66-1.8-1.21-2.42-1.26-1.06-2.13-1.35c-.89-.29-1.94-.42-3.2-.42h-8.85l.94-2.35h8.83c.5,0,1.05.02,1.65.09.59.07,1.19.15,1.78.31.57.16,1.14.38,1.69.67.55.29,1.03.67,1.46,1.11.96,1.02,1.6,2.22,1.92,3.57.3,1.37.46,2.91.46,4.61v13.4h-2.97ZM110.89,145.39v-13.46h2.95v13.46h-2.95Z"/>
      <path class="cls-2" d="M156.24,145.39h-7.14l7.07-18.72h-13.45v-11.8h6.56v6.76h14.55v3.5l-7.59,20.25Z"/>
      <path class="cls-2" d="M193.65,136.32c-.07.84-.18,1.66-.37,2.46-.18.82-.46,1.6-.82,2.33-.37.75-.85,1.44-1.46,2.08-.53.55-1.12.97-1.74,1.31s-1.26.6-1.87.78c-.64.18-1.26.29-1.85.35-.59.04-1.12.07-1.58.07-.53,0-1.01,0-1.4-.02-.39-.02-.75-.07-1.07-.11-.32-.04-.62-.09-.89-.13-.28-.07-.55-.13-.8-.2l.96-4.88c.34.07.66.13.98.2.32.07.64.09.94.09.14,0,.32,0,.53-.02.21-.02.43-.07.69-.13.25-.07.5-.15.8-.31.27-.13.55-.33.85-.58.59-.53.98-1.24,1.19-2.13.18-.87.28-1.89.28-3.06,0-.53-.02-1.09-.05-1.64-.05-.55-.11-1.09-.2-1.62-.11-.53-.25-1.04-.41-1.53-.16-.47-.37-.91-.62-1.31-.3-.49-.66-.86-1.08-1.13-.41-.26-.82-.47-1.26-.6-.43-.11-.87-.18-1.28-.18-.41.02-.76.07-1.05.13-.5.13-.96.38-1.35.71-.39.35-.75.8-1.05,1.31-.3.53-.57,1.13-.78,1.82-.21.69-.39,1.4-.53,2.17l-2.31,12.84h-6.66l3.11-15.7-4.78-7.61.07-.44h7.34l2.17,3.22c.3-.44.64-.86,1.08-1.29.41-.4.89-.75,1.44-1.09.53-.33,1.12-.6,1.76-.82.64-.22,1.33-.35,2.08-.42.59-.04,1.23-.07,1.92-.04.66.02,1.35.13,2.06.29.69.18,1.37.44,2.04.78.66.33,1.3.8,1.88,1.37.66.67,1.19,1.42,1.62,2.26.41.86.73,1.75.96,2.66s.39,1.82.48,2.73c.07.91.11,1.75.11,2.51,0,.84-.02,1.68-.07,2.53Z"/>
      <path class="cls-2" d="M209.97,145.39v-13.2c0-1.02-.07-1.89-.23-2.6-.16-.69-.46-1.26-.85-1.71-.41-.42-.94-.73-1.6-.93-.66-.2-1.51-.29-2.52-.29h-8.44l1.76-5.03h8.67c.5,0,1.08.02,1.69.04.62.02,1.28.11,1.94.24s1.3.33,1.97.6c.64.29,1.23.67,1.78,1.15.62.58,1.12,1.2,1.46,1.89.34.69.62,1.4.78,2.13.16.73.25,1.48.28,2.26.02.78.05,1.51.05,2.24v13.2h-6.75Z"/>
      <path class="cls-2" d="M241.08,136.03c-.11.8-.27,1.57-.53,2.35-.25.78-.59,1.51-1.01,2.22-.43.73-.94,1.4-1.56,2.02-.59.6-1.28,1.09-2.04,1.46-.78.38-1.58.69-2.42.91-.85.22-1.72.38-2.58.46-.89.07-1.74.11-2.56.11h-1.26c-.5-.02-1.03-.02-1.58-.04-.55-.02-1.1-.02-1.67-.04-.57-.02-1.12-.07-1.6-.09s-.91-.07-1.28-.09c-.37-.02-.62-.04-.78-.07l1.99-5.01c.43.04.85.09,1.23.11.39.04.78.07,1.17.09.39.02.82.04,1.28.04.43.02.96.02,1.53.02.91,0,1.81-.11,2.65-.35.85-.24,1.6-.62,2.24-1.18.64-.56,1.14-1.26,1.53-2.17.37-.89.53-1.97.5-3.28-.05-2.29-.71-4.04-2.01-5.23-1.3-1.18-3.13-1.77-5.47-1.77-.57,0-1.08,0-1.56.02-.48.02-.98.02-1.49.04-.5.02-1.03.07-1.58.11-.57.04-1.21.09-1.94.13l1.85-5.15c.48-.02,1.03-.07,1.67-.09.62-.02,1.26-.02,1.88-.04.62-.02,1.17-.02,1.69-.04h1.14c1.03,0,2.01.07,2.95.18.94.11,1.85.31,2.7.58.85.29,1.62.64,2.38,1.06.73.45,1.4.98,1.99,1.62.48.51.87,1.11,1.21,1.75.34.64.62,1.35.85,2.08.21.75.37,1.53.48,2.35.09.82.14,1.64.14,2.46v.09c0,.78-.05,1.57-.16,2.37Z"/>
    </g>
    <g>
      <path class="cls-1" d="M29.92,167.28v-8.08c0-.25,0-.47-.02-.65-.02-.16-.06-.31-.11-.42-.05-.11-.13-.18-.23-.23-.11-.05-.25-.07-.43-.07h-.9l.48-1.04h1.01c.19,0,.36.02.55.06.18.04.33.12.48.25.14.13.24.31.33.55.09.24.13.56.13.96v8.67h-1.28Z"/>
      <path class="cls-1" d="M37.55,167.28h-4.23l.52-1.06h2.45v-6.51c0-.38-.03-.68-.1-.93-.07-.24-.17-.43-.29-.58-.14-.14-.3-.23-.51-.28-.2-.05-.45-.08-.72-.08h-.91l.52-1.04h1.06c.11,0,.25,0,.39.02.15.02.29.05.45.09.15.05.3.11.45.2.15.09.28.19.4.33.19.22.33.51.42.88s.13.84.13,1.42v7.54Z"/>
      <path class="cls-1" d="M41.38,162.39v-3.29c0-.25-.01-.46-.04-.63-.03-.17-.07-.29-.14-.39-.07-.09-.17-.16-.27-.2-.12-.03-.26-.05-.44-.05h-.81l.49-1.04h.96c.19,0,.36.02.55.05s.35.11.5.22c.15.13.26.3.35.54.09.24.14.55.14.95v3.82h-1.28Z"/>
      <path class="cls-1" d="M49.42,167.28h-1.27l3.23-9.44h-6.36v-4.26h1.26v3.23h6.74l-3.6,10.47Z"/>
      <path class="cls-1" d="M63.29,162.49c-.03.32-.06.61-.11.87-.05.26-.12.51-.2.72-.09.22-.19.43-.31.63-.15.24-.32.46-.52.66-.2.19-.43.37-.69.54-.26.16-.55.31-.87.45-.32.15-.67.28-1.08.42-.29.1-.6.2-.91.29-.32.11-.62.21-.9.3-.23.09-.48.18-.73.27-.25.09-.5.18-.74.27-.24.09-.48.17-.69.25-.23.08-.42.15-.6.22v-1.13l2.87-1.09-1.56-6.99c-.03-.13-.06-.26-.09-.39-.03-.13-.07-.25-.1-.36-.04-.11-.08-.21-.12-.29-.04-.08-.08-.14-.13-.17-.03-.02-.07-.04-.11-.06-.04,0-.1-.02-.19-.03-.09,0-.19,0-.33-.02-.15-.01-.33-.01-.56-.01l.54-1.04h1.05c.22,0,.39.03.52.09.13.06.23.15.3.27.08.13.15.28.2.48.05.21.1.44.17.72l1.65,7.41c.42-.14.76-.27,1.05-.41.27-.13.51-.25.69-.38.19-.13.33-.25.45-.36.11-.11.21-.22.28-.32.21-.26.33-.61.39-1.04s.09-.9.09-1.42v-2.69c-.01-.25-.02-.45-.04-.62-.03-.17-.07-.31-.14-.42s-.16-.18-.27-.23c-.13-.05-.28-.07-.47-.07h-.77l.52-1.02h.92c.3,0,.55.03.75.1.21.07.36.19.49.35.12.16.21.38.25.64.05.27.08.61.08,1.01v2.51c0,.4-.01.75-.03,1.07Z"/>
      <path class="cls-1" d="M70.4,167.28v-9.43h-1.07l.46-1.05h4.92c.25,0,.52,0,.79.04.27.03.55.07.81.14.26.07.51.17.74.28s.44.26.62.44c.21.21.37.44.5.7.13.26.24.54.3.82.07.28.11.59.14.89s.04.62.04.92v6.25h-8.25ZM77.38,161.08c0-.6-.05-1.09-.15-1.52-.1-.41-.25-.74-.48-1-.23-.25-.52-.44-.88-.56-.36-.11-.81-.17-1.35-.17h-2.87v8.38h5.72v-5.14Z"/>
      <path class="cls-1" d="M82.31,162.39v-3.29c0-.25-.01-.46-.04-.63-.03-.17-.07-.29-.14-.39-.07-.09-.17-.16-.27-.2-.12-.03-.26-.05-.44-.05h-.81l.49-1.04h.96c.19,0,.36.02.55.05s.35.11.5.22c.15.13.26.3.35.54.09.24.14.55.14.95v3.82h-1.28Z"/>
      <path class="cls-1" d="M95.62,162.89c-.02.34-.06.68-.13,1.03s-.18.67-.3,1.01c-.14.33-.32.67-.56,1.01-.23.32-.48.59-.76.78-.28.2-.57.36-.85.47-.29.11-.58.18-.84.22-.26.04-.5.06-.69.06-.53,0-1.03-.06-1.51-.18-.48-.13-.9-.34-1.26-.66-.57-.48-.98-1.07-1.22-1.75s-.38-1.47-.39-2.34l-.09-4.71h-1.07l.5-1.03h5.06c.62,0,1.15.08,1.62.24.46.17.85.39,1.17.67.23.2.43.44.6.74.17.3.3.63.41.99.11.36.2.75.25,1.15.05.41.08.82.08,1.23,0,.36,0,.71-.02,1.06ZM94.24,160.82c-.05-.33-.13-.65-.22-.94-.09-.29-.2-.56-.34-.79-.15-.23-.31-.43-.5-.58-.26-.21-.58-.37-.93-.49-.35-.12-.73-.18-1.14-.18h-2.88l.12,4.77c.01.63.1,1.17.24,1.65.15.48.37.9.68,1.25.17.19.34.34.53.46.19.13.37.22.56.28.19.07.37.11.55.13.18.03.34.04.49.04.14,0,.29-.02.48-.05.18-.03.36-.08.55-.15.19-.07.36-.16.54-.26s.33-.25.48-.41c.34-.39.58-.89.7-1.5s.19-1.35.18-2.22c-.01-.35-.03-.7-.08-1.03Z"/>
      <path class="cls-1" d="M106.09,163.41c-.04.38-.1.72-.19,1.04-.09.32-.19.62-.32.88-.14.27-.3.52-.49.75-.2.25-.44.46-.7.63-.27.17-.57.29-.87.38-.3.1-.62.17-.94.2-.32.04-.63.06-.93.06-.18,0-.41,0-.69,0-.29,0-.6-.02-.9-.03-.3,0-.6-.03-.86-.05-.26,0-.46-.03-.58-.05l.52-1.03c.33.05.72.08,1.16.1.44.02.89.03,1.34.03.49,0,.93-.06,1.33-.19.4-.12.74-.32,1.03-.63.28-.29.5-.69.66-1.19.16-.5.24-1.13.24-1.9v-.08c0-.33-.01-.66-.02-.99-.02-.32-.06-.64-.12-.95s-.14-.6-.24-.88c-.11-.28-.24-.54-.42-.78-.15-.21-.32-.37-.51-.51-.19-.13-.39-.24-.6-.31-.22-.08-.43-.14-.65-.17-.22-.03-.42-.05-.63-.05h-.58c-.11,0-.22,0-.31,0-.11.01-.19.01-.25.01l-.79.04c-.11.48-.19.96-.25,1.45-.07.5-.11.93-.13,1.29-.03.42.08.78.32,1.07.24.29.66.48,1.26.55l-.38.93c-.17-.01-.34-.04-.51-.08-.18-.03-.34-.08-.5-.14-.17-.05-.31-.12-.45-.18-.14-.07-.25-.16-.35-.25-.17-.15-.31-.36-.44-.63s-.2-.6-.22-.99c-.01-.18.01-.43.04-.73.03-.3.08-.64.13-1,.05-.36.12-.73.19-1.13.07-.39.14-.76.2-1.11.08-.01.24-.03.5-.05.24,0,.53-.03.85-.04.31-.01.64-.03.96-.04.32,0,.6,0,.82,0,.75,0,1.42.11,1.98.31s1.02.54,1.39,1.01c.32.41.57.95.73,1.63.16.67.24,1.5.24,2.5v.04c0,.46-.02.87-.06,1.25Z"/>
      <path class="cls-1" d="M117.74,162.91c-.08.44-.19.84-.32,1.2-.15.37-.32.71-.53,1.02-.2.31-.45.61-.71.88-.26.27-.57.49-.91.67-.34.18-.69.32-1.08.43-.38.11-.78.18-1.18.23-.41.04-.81.05-1.21.03l-2.29-.09-.23-8.37c0-.15-.02-.27-.03-.38,0-.1-.03-.18-.06-.25-.03-.07-.06-.12-.09-.16-.04-.05-.08-.09-.13-.14-.04-.04-.1-.07-.18-.1-.09-.02-.18-.03-.27-.04-.11,0-.22,0-.32,0-.11,0-.22,0-.31.02l.49-1.03h.76s.11,0,.2.01c.08,0,.17.03.25.06.09.03.19.07.28.12.09.05.18.12.25.18.15.15.25.33.31.54.05.2.08.43.09.66l.22,7.83,1.13.04c.22,0,.47,0,.77-.03s.61-.08.93-.17c.32-.08.64-.2.94-.35.3-.15.58-.34.8-.59.44-.46.75-.99.94-1.57.18-.59.26-1.24.25-1.96,0-.25,0-.52-.04-.8-.03-.27-.08-.55-.15-.82-.07-.27-.17-.54-.29-.79s-.28-.49-.47-.69c-.15-.17-.3-.29-.49-.39-.19-.09-.37-.16-.56-.2-.19-.05-.36-.07-.53-.08s-.29,0-.4,0c-.11,0-.25.05-.42.11-.17.06-.33.12-.49.18l-.05-.07.51-1.13c.06-.03.14-.06.24-.09.09-.03.2-.05.3-.08.11-.03.23-.05.35-.07.12,0,.23-.02.33-.02.87,0,1.6.29,2.22.89.24.23.43.5.6.79.17.3.29.62.4.96.1.34.17.7.22,1.07.04.38.06.76.06,1.14,0,.51-.04.98-.11,1.41Z"/>
      <path class="cls-1" d="M129.54,163.58c-.03.38-.09.74-.17,1.09-.08.34-.19.66-.31.95-.14.3-.3.57-.51.8-.19.23-.39.4-.62.53-.23.14-.46.25-.68.31-.24.08-.46.13-.68.16-.23.03-.42.04-.6.04-.3,0-.58-.02-.84-.05-.26-.04-.46-.08-.61-.13l.22-1.05c.15.07.32.11.51.14s.38.04.57.04c.05,0,.13,0,.25-.02.13-.01.26-.05.42-.1.16-.05.32-.12.5-.21.17-.09.32-.22.47-.37.3-.34.51-.77.62-1.3.1-.52.15-1.11.15-1.74,0-.27,0-.56-.03-.87-.03-.31-.07-.63-.12-.95-.05-.31-.12-.62-.2-.91-.09-.29-.19-.56-.31-.78-.26-.49-.61-.85-1.01-1.09-.4-.23-.87-.32-1.4-.27-.29.03-.57.12-.81.27-.25.17-.48.37-.67.64s-.36.58-.5.94c-.15.36-.25.76-.34,1.2l-1.23,6.45h-1.25l1.36-7.05-2.28-3.41h1.52l1.48,2.1c.18-.38.39-.7.64-.99.24-.27.5-.5.77-.68.27-.18.56-.31.84-.4s.57-.15.83-.16c.28-.01.56,0,.84.05.27.05.54.13.8.24.26.11.51.25.74.44.24.19.45.42.65.7.19.28.36.61.49.95s.24.7.31,1.09c.08.38.14.76.18,1.15.03.38.05.75.06,1.11,0,.4,0,.79-.03,1.17Z"/>
      <path class="cls-1" d="M142.58,167.28c-1.14-1.78-2.08-3.21-2.81-4.27-.73-1.07-1.24-1.78-1.53-2.14-.29.26-.53.51-.69.73-.18.23-.3.47-.39.73s-.14.57-.16.9c-.03.33-.04.72-.03,1.18.01.44.02.78.03,1.03.01.25.04.42.08.53.03.12.08.18.15.2.07.03.16.04.27.04h.97l-.32,1.07h-1.25c-.15,0-.29,0-.46-.03-.17,0-.3-.07-.41-.17-.07-.07-.13-.14-.18-.23-.05-.09-.08-.21-.11-.38-.03-.17-.04-.4-.05-.68s-.02-.67-.02-1.13c0-.3,0-.6.02-.86.01-.27.03-.51.07-.74.03-.23.09-.47.18-.69.08-.23.2-.46.34-.69.15-.24.34-.48.57-.74.23-.25.51-.54.84-.84l-2.37-3.28h1.63l4.18,5.75c.35-.2.64-.4.85-.61.21-.21.37-.42.49-.66.12-.24.19-.5.23-.79.04-.28.07-.62.08-1,0-.35,0-.64-.02-.86-.03-.21-.07-.38-.13-.51-.06-.12-.13-.2-.22-.24-.09-.04-.19-.06-.3-.06h-.92l.36-1.04h1.2c.17,0,.33.02.52.07.19.05.34.15.47.31.07.09.12.19.17.29.05.11.08.24.11.4.02.16.03.34.04.56,0,.23,0,.48,0,.77,0,.46-.03.88-.1,1.26-.07.38-.19.74-.38,1.08-.19.34-.45.66-.77.96-.32.3-.74.6-1.26.88l2.62,3.89h-1.6Z"/>
      <path class="cls-1" d="M150.53,167.28h-1.27l3.23-9.44h-6.36v-4.26h1.26v3.23h6.74l-3.6,10.47Z"/>
      <path class="cls-1" d="M165.82,167.28v-6.1c0-.64-.05-1.17-.16-1.6-.11-.42-.27-.76-.5-1.03-.22-.25-.53-.44-.9-.55s-.82-.16-1.36-.16h-3.05l.45-1.04h3.04c.22,0,.45,0,.69.03.24.03.5.07.74.14.25.07.49.16.72.27.23.13.43.28.62.49.22.24.39.5.52.76.13.27.22.56.28.84s.11.58.13.88c.02.3.03.61.03.91v6.15h-1.26Z"/>
      <path class="cls-1" d="M177.4,167.28h-7.92l.41-1.06h5.56v-5.43c0-.6-.05-1.09-.16-1.47-.11-.38-.26-.69-.49-.91-.22-.22-.5-.36-.84-.45s-.75-.13-1.22-.13h-3.1l.4-1.04h3.19c.6,0,1.13.08,1.61.23.47.16.87.45,1.21.88.45.58.68,1.52.67,2.82l-.03,4.08v.74c-.01.19,0,.33.01.43,0,.1.04.16.08.18.03.03.09.05.16.05h.86l-.4,1.06Z"/>
      <path class="cls-1" d="M186.73,164.36c-.19.7-.49,1.27-.9,1.72-.21.23-.43.41-.69.58-.26.17-.54.29-.83.4-.29.11-.6.18-.91.23-.31.05-.63.07-.94.07-.18,0-.4,0-.68-.01-.28,0-.57-.03-.85-.04-.29,0-.57-.03-.81-.04-.24-.01-.43-.03-.54-.04l.51-1.05c.25.03.56.06.92.09.35.03.75.05,1.2.05.48,0,.93-.07,1.35-.2.42-.13.79-.34,1.12-.66.31-.31.57-.74.75-1.28s.27-1.21.27-2.03v-.09c0-.77-.08-1.44-.23-1.98-.16-.54-.38-.98-.68-1.32-.3-.34-.67-.59-1.1-.74-.43-.15-.92-.23-1.48-.23-.4,0-.82,0-1.28.02-.46,0-.9.03-1.33.06l.45-1.09c.18,0,.39-.02.64-.03.24,0,.49,0,.73-.02.24-.01.46-.01.66-.02h.43c.77,0,1.47.14,2.09.41.63.27,1.13.69,1.54,1.27.58.83.86,2.04.86,3.61v.04c0,.84-.09,1.6-.27,2.3Z"/>
      <path class="cls-1" d="M193.77,167.28v-9.43h-1.07l.46-1.05h4.92c.25,0,.52,0,.79.04.27.03.55.07.81.14.26.07.51.17.74.28s.44.26.62.44c.21.21.37.44.5.7.13.26.24.54.3.82.07.28.11.59.14.89s.04.62.04.92v6.25h-8.25ZM200.76,161.08c0-.6-.05-1.09-.15-1.52-.1-.41-.25-.74-.48-1-.23-.25-.52-.44-.88-.56-.36-.11-.81-.17-1.35-.17h-2.87v8.38h5.72v-5.14Z"/>
      <path class="cls-1" d="M211.49,167.28v-6c0-.62-.05-1.14-.16-1.58-.11-.44-.28-.79-.52-1.07-.24-.27-.54-.47-.91-.6-.38-.13-.83-.19-1.37-.19h-3.78l.4-1.04h3.77c.22,0,.45,0,.7.04s.51.07.76.14c.25.07.49.17.72.29.24.13.44.29.63.49.41.45.68.98.82,1.57.13.61.2,1.28.2,2.03v5.91h-1.27ZM204.91,167.28v-5.94h1.26v5.94h-1.26Z"/>
    </g>
  </g>
</svg>