<svg width="500" height="500" viewBox="0 0 500 500" fill="none" xmlns="http://www.w3.org/2000/svg">
<g clip-path="url(#clip0_67_97)">
<path d="M300.999 479.131C271.877 507.473 226.184 506.815 197.661 478.003C187.308 467.546 176.907 458.463 165.613 448.733L120.731 447.793C84.6751 447.041 54.0487 417.372 52.1566 381.263L49.5006 330.83L21.7652 302.054C-7.46264 271.726 -7.40388 225.301 22.9052 196.266C33.0709 186.525 41.6148 176.243 51.0166 165.492L51.7805 122.991C52.4504 85.5776 81.9251 53.7812 119.673 51.9599L168.986 49.5746L200.964 18.8358C227.453 -6.62719 271.795 -5.91042 298.966 18.7653L334.293 50.8437L379.175 51.8659C415.313 52.6885 445.975 82.2053 447.773 118.396L450.276 168.852L478.223 197.605C506.699 226.911 507.674 272.443 478.764 301.49C468.21 312.1 458.632 322.699 449.007 334.109C448.69 347.328 447.855 358.82 448.337 371.874C449.806 411.732 419.462 445.937 378.999 447.793L330.932 450.002L300.987 479.131H300.999ZM146.139 281.585L194.582 329.808C204.466 339.655 220.284 339.867 230.403 329.749L355.142 205.055C365.178 195.02 364.778 179.463 355.306 169.757C346.41 160.639 330.274 159.264 320.437 169.122L212.457 277.19L178.07 243.138C168.269 233.432 151.428 236.64 143.577 245.852C134.14 256.944 135.762 271.268 146.128 281.573L146.139 281.585Z" fill="black"/>
</g>
<defs>
<clipPath id="clip0_67_97">
<rect width="500" height="500" fill="white"/>
</clipPath>
</defs>
</svg>
