<svg width="370" height="500" viewBox="0 0 370 500" fill="none" xmlns="http://www.w3.org/2000/svg">
<g clip-path="url(#clip0_67_88)">
<path d="M183.569 0H23.7825C10.6417 0 0 10.6169 0 23.7272V476.273C0 489.383 10.6417 500 23.7825 500H207.311V23.7272C207.311 10.6169 196.67 0 183.569 0ZM124.153 52.4411C124.153 48.0174 127.74 44.398 132.215 44.398H158.819C163.253 44.398 166.881 48.0174 166.881 52.4411V78.9833C166.881 83.4473 163.253 87.0265 158.819 87.0265H132.215C127.74 87.0265 124.153 83.4473 124.153 78.9833V52.4411ZM124.153 139.829C124.153 135.406 127.74 131.786 132.215 131.786H158.819C163.253 131.786 166.881 135.406 166.881 139.829V166.372C166.881 170.836 163.253 174.415 158.819 174.415H132.215C127.74 174.415 124.153 170.836 124.153 166.372V139.829ZM83.1986 253.76C83.1986 258.224 79.5708 261.803 75.1367 261.803H48.5325C44.0582 261.803 40.4706 258.224 40.4706 253.76V227.218C40.4706 222.794 44.0582 219.175 48.5325 219.175H75.1367C79.5708 219.175 83.1986 222.794 83.1986 227.218V253.76ZM83.1986 166.372C83.1986 170.836 79.5708 174.415 75.1367 174.415H48.5325C44.0582 174.415 40.4706 170.836 40.4706 166.372V139.829C40.4706 135.406 44.0582 131.786 48.5325 131.786H75.1367C79.5708 131.786 83.1986 135.406 83.1986 139.829V166.372ZM83.1986 78.9833C83.1986 83.4473 79.5708 87.0265 75.1367 87.0265H48.5325C44.0582 87.0265 40.4706 83.4473 40.4706 78.9833V52.4411C40.4706 48.0174 44.0582 44.398 48.5325 44.398H75.1367C79.5708 44.398 83.1986 48.0174 83.1986 52.4411V78.9833ZM158.819 261.803H132.215C127.74 261.803 124.153 258.224 124.153 253.76V227.218C124.153 222.794 127.74 219.175 132.215 219.175H158.819C163.253 219.175 166.881 222.794 166.881 227.218V253.76C166.881 258.224 163.253 261.803 158.819 261.803Z"/>
<path d="M370 310.987V476.273C370 489.383 359.358 500 346.217 500H287.728V428.617C287.728 424.153 284.101 420.574 279.667 420.574H253.022C248.588 420.574 244.96 424.153 244.96 428.617V500H162.689V301.214C162.689 296.027 164.382 290.96 167.566 286.858L207.311 234.859L247.419 182.378C256.932 169.911 275.716 169.911 285.229 182.378L359.197 279.096C366.211 288.265 370 299.445 370 310.987Z" fill="#010101"/>
</g>
<defs>
<clipPath id="clip0_67_88">
<rect width="370" height="500" fill="white"/>
</clipPath>
</defs>
</svg>
