<svg width="500" height="216" viewBox="0 0 500 216" fill="none" xmlns="http://www.w3.org/2000/svg">
<g clip-path="url(#clip0_67_74)">
<path fill-rule="evenodd" clip-rule="evenodd" d="M235.616 95.7191C237.925 98.3472 241.414 100.384 246.085 101.829L258.283 105.338L259.15 105.772C269.932 111.318 275.167 114.957 274.852 116.692C273.12 125.156 267.165 129.965 256.984 131.121L197.638 132.854V135.931C207.818 143.789 219.454 149.32 232.546 152.527L237.346 154.735C248.97 160.833 254.203 169.283 253.05 180.085L250.018 183.554C234.88 186.759 219.756 184.723 204.643 177.443C198.53 174.815 192.272 172.922 185.871 171.766L169.735 169.164C178.158 179.65 183.536 193.199 185.871 209.809C186.449 216.195 180.768 217.641 168.831 214.145L146.162 203.225L126.524 179.65C106.165 179.65 86.8292 176.155 68.5156 169.164L64.1475 164.355C62.3897 158.232 63.1109 152.252 66.312 146.418C67.7812 143.501 68.2138 140.294 67.6103 136.797L61.9434 117.125C44.2069 117.415 27.3375 121.2 11.3334 128.48L5.23338 129.819H1.29789L0 126.745L1.73189 116.258L3.06977 114.524L3.5024 114.091C5.52286 113.196 7.1225 113.63 8.3036 115.39C29.5289 116.258 43.7748 114.654 51.0427 110.581L54.1115 109.714C59.0445 105.325 62.3892 103.434 64.147 104.037C67.0596 97.9138 69.6699 85.8109 71.9789 67.7281L75.9139 47.6622C78.8265 35.9923 85.6609 28.5556 96.418 25.348C103.685 23.0094 109.943 20.3941 115.19 17.5038C123.611 12.8249 128.124 9.3164 128.728 6.97695L130.027 4.80866L133.49 4.37528V3.94189C140.495 7.72672 142.83 14.2835 140.495 23.6144C137.583 35.5457 132.349 46.6106 124.793 56.8084L136.56 55.0744L145.73 51.9992L197.638 43.286L225.147 43.7203L252.184 48.5299L253.916 50.6982C253.626 58.8715 247.527 65.8625 235.616 71.6704C228.925 74.8776 217.866 78.3719 202.44 82.1581C207.975 85.942 216.267 89.5812 227.311 93.0774L235.616 95.7191Z" fill="black"/>
<path fill-rule="evenodd" clip-rule="evenodd" d="M258.283 105.338L246.085 101.829C241.414 100.384 237.925 98.3476 235.616 95.7191C232.992 92.5124 231.536 88.8733 231.247 84.7985C230.958 83.0367 236.626 80.41 248.248 76.9143C259.294 73.4185 270.641 71.0918 282.291 69.936C293.048 68.7792 301.915 66.8868 308.895 64.2592L278.355 45.8877C269.933 40.053 266.444 32.7728 267.887 24.0478L270.091 22.7463C306.429 25.0593 333.622 28.8437 351.672 34.1003C355.74 35.2571 361.839 38.7519 369.973 44.5871L378.709 49.3962C383.641 52.0252 387.276 53.3385 389.611 53.3385C383.497 41.6695 380.152 29.7241 379.575 17.5038C379.286 7.88422 382.919 2.04947 390.476 0H390.909L393.978 0.866768L394.844 3.07466C394.555 5.38771 398.19 9.89499 405.745 16.597L423.219 26.6499C433.11 32.1951 438.488 40.9475 439.354 52.9052L439.787 69.9364C438.632 92.9586 439.065 107.966 441.085 114.957L450.255 122.369C451.12 122.369 451.855 122.815 452.459 123.709C458.547 128.939 472.36 133.157 493.899 136.365L498.701 135.93L499.566 136.365L499.999 138.098L499.566 149.059L497.834 151.661L494.332 151.226L488.664 149.059C474.103 138.861 458.099 131.857 440.651 128.045C437.162 133.302 434.264 139.426 431.955 146.417L431.05 149.059C432.807 154.289 430.918 162.291 425.382 173.067L420.147 176.576L373.905 173.5L342.069 192.305C336.532 194.934 328.386 196.971 317.629 198.416C305.403 199.598 300.168 197.851 301.927 193.172C307.147 176.851 314.848 164.328 325.027 155.603L308.026 154.735L288.821 156.904C273.997 161.267 259.306 160.255 244.744 153.869L242.58 149.926C242.868 142.33 249.125 136.64 261.352 132.855L266.153 131.989L303.657 117.559L304.523 114.524L258.283 105.338Z" fill="black"/>
</g>
<defs>
<clipPath id="clip0_67_74">
<rect width="500" height="216" fill="white"/>
</clipPath>
</defs>
</svg>
