<svg width="375" height="500" viewBox="0 0 375 500" fill="none" xmlns="http://www.w3.org/2000/svg">
<path d="M210.645 487.5C260.742 424.805 375 272.852 375 187.5C375 83.9844 291.016 0 187.5 0C83.9844 0 0 83.9844 0 187.5C0 272.852 114.258 424.805 164.355 487.5C176.367 502.441 198.633 502.441 210.645 487.5ZM187.5 125C204.076 125 219.973 131.585 231.694 143.306C243.415 155.027 250 170.924 250 187.5C250 204.076 243.415 219.973 231.694 231.694C219.973 243.415 204.076 250 187.5 250C170.924 250 155.027 243.415 143.306 231.694C131.585 219.973 125 204.076 125 187.5C125 170.924 131.585 155.027 143.306 143.306C155.027 131.585 170.924 125 187.5 125Z"/>
</svg>
