<svg width="500" height="500" viewBox="0 0 500 500" fill="none" xmlns="http://www.w3.org/2000/svg">
<path d="M161.022 24.043C157.392 15.2766 150.687 8.13718 142.165 3.9656C133.643 -0.205983 123.891 -1.12264 114.741 1.3878L28.8081 24.824C20.5447 27.0915 13.2526 32.0058 8.04931 38.8141C2.846 45.6223 0.0184748 53.9488 0 62.5177C0 304.108 195.89 500 437.482 500C446.051 499.982 454.377 497.154 461.185 491.951C467.993 486.748 472.908 479.457 475.176 471.194L498.612 385.26C501.123 376.11 500.206 366.358 496.035 357.836C491.863 349.313 484.723 342.608 475.957 338.978L382.212 299.91C374.462 296.668 365.872 296.02 357.724 298.062C349.575 300.104 342.306 304.726 337 311.238L297.546 359.38C228.691 326.754 173.245 271.309 140.619 202.454L188.761 163.1C195.269 157.79 199.888 150.521 201.929 142.374C203.971 134.227 203.325 125.638 200.09 117.888L161.022 24.1413V24.043Z"/>
</svg>
