<svg width="500" height="489" viewBox="0 0 500 489" fill="none" xmlns="http://www.w3.org/2000/svg">
<path d="M425.112 71.0578C378.348 25.2141 316.071 0 249.888 0C113.281 0 2.12054 108.715 2.12054 242.317C2.12054 284.995 13.5045 326.691 35.1563 363.475L0 489L131.362 455.272C167.522 474.592 208.259 484.743 249.777 484.743H249.888C386.384 484.743 500 376.028 500 242.426C500 177.699 471.875 116.902 425.112 71.0578ZM249.888 443.92C212.835 443.92 176.562 434.206 144.978 415.868L137.5 411.502L59.5982 431.477L80.3571 357.145L75.4464 349.504C54.7991 317.413 43.9732 280.411 43.9732 242.317C43.9732 131.31 136.384 40.9319 250 40.9319C305.022 40.9319 356.696 61.8891 395.536 99.983C434.375 138.077 458.259 188.614 458.147 242.426C458.147 353.543 363.393 443.92 249.888 443.92ZM362.835 293.073C356.696 290.016 326.228 275.39 320.536 273.425C314.844 271.351 310.714 270.369 306.585 276.481C302.455 282.594 290.625 296.129 286.942 300.277C283.371 304.315 279.688 304.861 273.549 301.805C237.165 284.013 213.281 270.042 189.286 229.764C182.924 219.068 195.647 219.832 207.478 196.692C209.487 192.653 208.482 189.16 206.92 186.104C205.357 183.048 192.969 153.249 187.835 141.133C182.813 129.345 177.679 130.982 173.884 130.764C170.313 130.546 166.183 130.546 162.054 130.546C157.924 130.546 151.228 132.074 145.536 138.077C139.844 144.19 123.884 158.816 123.884 188.614C123.884 218.413 146.094 247.229 149.107 251.267C152.232 255.306 192.746 316.431 254.911 342.737C294.196 359.328 309.598 360.747 329.241 357.909C341.183 356.162 365.848 343.282 370.982 329.093C376.116 314.903 376.116 302.787 374.554 300.277C373.103 297.548 368.973 296.02 362.835 293.073Z" fill="black"/>
</svg>
